<global>
ampeg_release=3.50

<group>
group_label=RR1
seq_length=8
seq_position=1

<region>
hivel=25
key=D3
lovel=0
sample=Taikos_Hit_PP_D4_RR1.opus

<region>
hivel=51
key=D3
lovel=26
sample=Taikos_Hit_MP_D4_RR1.opus

<region>
hivel=77
key=D3
lovel=52
sample=Taikos_Hit_MF_D4_RR1.opus

<region>
hivel=103
key=D3
lovel=78
sample=Taikos_Hit_F_D4_RR1.opus

<region>
hivel=127
key=D3
lovel=104
sample=Taikos_Hit_FF_D4_RR1.opus

<group>
group_label=RR2
seq_length=8
seq_position=2

<region>
hivel=25
key=D3
lovel=0
offset=13053
sample=Taikos_Hit_PP_D4_RR2.opus

<region>
hivel=51
key=D3
lovel=26
offset=25
sample=Taikos_Hit_MP_D4_RR2.opus

<region>
hivel=77
key=D3
lovel=52
sample=Taikos_Hit_MF_D4_RR2.opus

<region>
hivel=103
key=D3
lovel=78
sample=Taikos_Hit_F_D4_RR2.opus

<region>
hivel=127
key=D3
lovel=104
sample=Taikos_Hit_FF_D4_RR2.opus

<group>
group_label=RR3
seq_length=8
seq_position=3

<region>
hivel=25
key=D3
lovel=0
sample=Taikos_Hit_PP_D4_RR3.opus

<region>
hivel=51
key=D3
lovel=26
sample=Taikos_Hit_MP_D4_RR3.opus

<region>
hivel=77
key=D3
lovel=52
sample=Taikos_Hit_MF_D4_RR3.opus

<region>
hivel=103
key=D3
lovel=78
offset=5
sample=Taikos_Hit_F_D4_RR3.opus

<region>
hivel=127
key=D3
lovel=104
sample=Taikos_Hit_FF_D4_RR3.opus

<group>
group_label=RR4
seq_length=8
seq_position=4

<region>
hivel=25
key=D3
lovel=0
offset=395
sample=Taikos_Hit_PP_D4_RR4.opus

<region>
hivel=51
key=D3
lovel=26
sample=Taikos_Hit_MP_D4_RR4.opus

<region>
hivel=77
key=D3
lovel=52
sample=Taikos_Hit_MF_D4_RR4.opus

<region>
hivel=103
key=D3
lovel=78
sample=Taikos_Hit_F_D4_RR4.opus

<region>
hivel=127
key=D3
lovel=104
sample=Taikos_Hit_FF_D4_RR4.opus

<group>
group_label=RR5
seq_length=8
seq_position=5

<region>
hivel=25
key=D3
lovel=0
offset=57
sample=Taikos_Hit_PP_D4_RR5.opus

<region>
hivel=51
key=D3
lovel=26
offset=25
sample=Taikos_Hit_MP_D4_RR5.opus

<region>
hivel=77
key=D3
lovel=52
offset=22
sample=Taikos_Hit_MF_D4_RR5.opus

<region>
hivel=103
key=D3
lovel=78
sample=Taikos_Hit_F_D4_RR5.opus

<region>
hivel=127
key=D3
lovel=104
sample=Taikos_Hit_FF_D4_RR5.opus

<group>
group_label=RR6
seq_length=8
seq_position=6

<region>
hivel=25
key=D3
lovel=0
sample=Taikos_Hit_PP_D4_RR6.opus

<region>
hivel=51
key=D3
lovel=26
offset=29
sample=Taikos_Hit_MP_D4_RR6.opus

<region>
hivel=77
key=D3
lovel=52
sample=Taikos_Hit_MF_D4_RR6.opus

<region>
hivel=103
key=D3
lovel=78
offset=44
sample=Taikos_Hit_F_D4_RR6.opus

<region>
hivel=127
key=D3
lovel=104
sample=Taikos_Hit_FF_D4_RR6.opus

<group>
group_label=RR7
seq_length=8
seq_position=7

<region>
hivel=25
key=D3
lovel=0
sample=Taikos_Hit_PP_D4_RR7.opus

<region>
hivel=51
key=D3
lovel=26
sample=Taikos_Hit_MP_D4_RR7.opus

<region>
hivel=77
key=D3
lovel=52
sample=Taikos_Hit_MF_D4_RR7.opus

<region>
hivel=103
key=D3
lovel=78
sample=Taikos_Hit_F_D4_RR7.opus

<region>
hivel=127
key=D3
lovel=104
sample=Taikos_Hit_FF_D4_RR7.opus

<group>
group_label=RR8
seq_length=8
seq_position=8

<region>
hivel=25
key=D3
lovel=0
offset=12394
sample=Taikos_Hit_PP_D4_RR8.opus

<region>
hivel=51
key=D3
lovel=26
sample=Taikos_Hit_MP_D4_RR8.opus

<region>
hivel=77
key=D3
lovel=52
sample=Taikos_Hit_MF_D4_RR8.opus

<region>
hivel=103
key=D3
lovel=78
offset=7
sample=Taikos_Hit_F_D4_RR8.opus

<region>
hivel=127
key=D3
lovel=104
sample=Taikos_Hit_FF_D4_RR8.opus
